# xmcd
#
# Track frame offsets:
# 150
# 16048
# 27040
# 37745
# 50245
# 63530
# 79343
# 90220
# 100788
# 109968
# 126150
# 139515
# 149448
# 161208
# 171523
# 186080
# 200895
# 212465
# 226690
# 239743
#
# Disc length: 3318 seconds
#
#
# Revision: 0
# Processed by: cddbd v1.5.1PL0 Copyright (c) Steve Scherf et al.
# Submitted via: FreeRIP 2.942 
#
DISCID=160cf414
DTITLE=Various Artist - Country's greatest hits CD1
DYEAR=1900
DGENRE=country
TTITLE0=Billie Jo Spears - Blanket on the ground
TTITLE1=Roger Miller - King of the road
TTITLE2=Freddy Fender - A man can cry
TTITLE3=Johnny Cash - Folsom prison blues
TTITLE4=Kenny Rogers - Ruby, don't take your love to town
TTITLE5=Skeeter Davis - Desperado
TTITLE6=Sammi Smith - Help me make it through the night
TTITLE7=Jimmy Rodgers - Kisses sweeter than wine
TTITLE8=Frankie Laine - Rawhide
TTITLE9=Lynn Anderson - The devil went down to Georgia
TTITLE10=Patti Page - Tennessee waltz
TTITLE11=Willie Nelson - Let's pretend
TTITLE12=Buck Owens - Foolin' around
TTITLE13=Dolly Parton - Release me
TTITLE14=George Jones - A good year for the roses
TTITLE15=The Kingston trio - Tom Dooley
TTITLE16=Gene Autry - Vaya con Dios
TTITLE17=Glen Campbel - Rhinestone cowboy
TTITLE18=Charlie Rich - Behind closed doors
TTITLE19=The Bellamy brothers - Let your love flow
EXTD=
EXTT0=
EXTT1=
EXTT2=
EXTT3=
EXTT4=
EXTT5=
EXTT6=
EXTT7=
EXTT8=
EXTT9=
EXTT10=
EXTT11=
EXTT12=
EXTT13=
EXTT14=
EXTT15=
EXTT16=
EXTT17=
EXTT18=
EXTT19=
PLAYORDER=
